<svg width="64" height="63" viewBox="0 0 64 63" fill="none" xmlns="http://www.w3.org/2000/svg">
<path fill-rule="evenodd" clip-rule="evenodd" d="M32 62.0438C49.6732 62.0438 64.0001 48.1549 64.0001 31.0219C64.0001 13.889 49.6732 0 32 0C14.3269 0 -3.8147e-06 13.889 -3.8147e-06 31.0219C-3.8147e-06 48.1549 14.3269 62.0438 32 62.0438Z" fill="#C9D7E9"/>
<path fill-rule="evenodd" clip-rule="evenodd" d="M32.0001 62.0438C49.6732 62.0438 64.0001 48.1549 64.0001 31.0219C64.0001 13.889 49.6732 0 32.0001 0C14.3269 0 1.90735e-05 13.889 1.90735e-05 31.0219C1.90735e-05 48.1549 14.3269 62.0438 32.0001 62.0438Z" fill="#012657"/>
<path fill-rule="evenodd" clip-rule="evenodd" d="M31.9996 60.1061C48.5682 60.1061 61.9997 47.0851 61.9997 31.023C61.9997 14.9608 48.5682 1.93986 31.9996 1.93986C15.431 1.93986 1.99953 14.9608 1.99953 31.023C1.99953 47.0851 15.431 60.1061 31.9996 60.1061Z" fill="#003D91"/>
<path fill-rule="evenodd" clip-rule="evenodd" d="M16.1111 23L16.1111 41.66L20.1382 43V27.3486C20.1382 26.6157 20.4517 26.1257 20.9515 26.2957C21.6101 26.4864 21.7387 27.1628 21.7387 27.8957V34.1464C24.2469 35.4157 26.2222 34.1457 26.2222 30.7893C26.2222 27.3486 25.0667 25.8214 21.6563 24.5943C20.3166 24.1207 17.8221 23.3321 16.1111 23" fill="white"/>
<path fill-rule="evenodd" clip-rule="evenodd" d="M21.1667 40.6321L27.7324 38.2864C28.4748 38.02 28.5904 37.6428 27.9866 37.4443C27.3814 37.2457 26.2851 37.3036 25.5405 37.5707L21.1667 39.1143V36.6557L21.4187 36.5707C21.4187 36.5707 22.6833 36.1228 24.4607 35.9264C26.2381 35.7293 28.4149 35.9514 30.1229 36.6007C32.0491 37.2121 32.2658 38.11 31.7776 38.7286C31.2872 39.3471 30.0876 39.7893 30.0876 39.7893L21.1667 43V40.6321" fill="white"/>
<path fill-rule="evenodd" clip-rule="evenodd" d="M8.06133 39.4431C5.89611 38.8688 5.53499 37.6709 6.52011 36.9816C7.43444 36.3438 8.98288 35.8623 8.98288 35.8623L15.389 33.7145V36.1623L10.7798 37.7202C9.96438 37.9973 9.84016 38.3852 10.501 38.5909C11.164 38.7959 12.3629 38.7373 13.1775 38.4602L15.389 37.7052V39.8959C15.2482 39.9202 15.0914 39.9431 14.9477 39.9659C12.7348 40.3073 10.3804 40.1659 8.06133 39.4431" fill="white"/>
<g opacity="0.5">
<path fill-rule="evenodd" clip-rule="evenodd" d="M17.8536 10.8061C18.6822 10.8061 19.3538 10.1552 19.3538 9.35216C19.3538 8.54916 18.6822 7.89819 17.8536 7.89819C17.025 7.89819 16.3533 8.54916 16.3533 9.35216C16.3533 10.1552 17.025 10.8061 17.8536 10.8061Z" fill="white"/>
<path d="M14.3044 11.161C15.7444 11.2395 16.1044 12.8788 14.4844 14.3727C12.3044 16.425 10.6744 18.9882 9.54441 21.6832C9.54441 21.6832 9.19441 22.3163 8.61441 22.4917C7.47441 22.8398 6.31441 21.689 6.92441 20.1884C8.33441 16.7982 10.4644 13.6263 13.3744 11.4431C13.6444 11.257 13.8044 11.1571 14.3044 11.161Z" fill="white"/>
</g>
<path d="M50.308 29.18C50.908 29.18 51.208 29.48 51.208 30.08V31.088C51.208 31.688 50.908 31.988 50.308 31.988H47.752V37.1C47.752 37.7 47.452 38 46.852 38H45.088C44.488 38 44.188 37.7 44.188 37.1V31.988H35.584C34.984 31.988 34.684 31.688 34.684 31.088V30.332C34.684 29.924 34.804 29.552 35.044 29.216L44.728 16.04C45.016 15.68 45.376 15.5 45.808 15.5H46.852C47.452 15.5 47.752 15.8 47.752 16.4V29.18H50.308ZM37.204 29.18H44.188V19.424L37.204 29.18Z" fill="white"/>
</svg>
