<svg width="64" height="63" viewBox="0 0 64 63" fill="none" xmlns="http://www.w3.org/2000/svg">
<path fill-rule="evenodd" clip-rule="evenodd" d="M32.0001 62.0438C49.6732 62.0438 64.0001 48.1549 64.0001 31.0219C64.0001 13.889 49.6732 0 32.0001 0C14.3269 0 2.67029e-05 13.889 2.67029e-05 31.0219C2.67029e-05 48.1549 14.3269 62.0438 32.0001 62.0438Z" fill="#C9D7E9"/>
<path fill-rule="evenodd" clip-rule="evenodd" d="M32.0001 62.0438C49.6732 62.0438 64.0001 48.1549 64.0001 31.0219C64.0001 13.889 49.6732 0 32.0001 0C14.327 0 4.95911e-05 13.889 4.95911e-05 31.0219C4.95911e-05 48.1549 14.327 62.0438 32.0001 62.0438Z" fill="#012657"/>
<path fill-rule="evenodd" clip-rule="evenodd" d="M31.9996 60.1061C48.5682 60.1061 61.9997 47.0851 61.9997 31.023C61.9997 14.9608 48.5682 1.93986 31.9996 1.93986C15.4311 1.93986 1.99956 14.9608 1.99956 31.023C1.99956 47.0851 15.4311 60.1061 31.9996 60.1061Z" fill="#003D91"/>
<path fill-rule="evenodd" clip-rule="evenodd" d="M16.1112 23L16.1112 41.66L20.1383 43V27.3486C20.1383 26.6157 20.4517 26.1257 20.9515 26.2957C21.6101 26.4864 21.7387 27.1628 21.7387 27.8957V34.1464C24.247 35.4157 26.2223 34.1457 26.2223 30.7893C26.2223 27.3486 25.0667 25.8214 21.6564 24.5943C20.3166 24.1207 17.8221 23.3321 16.1112 23" fill="white"/>
<path fill-rule="evenodd" clip-rule="evenodd" d="M21.1667 40.6321L27.7324 38.2864C28.4749 38.02 28.5904 37.6428 27.9866 37.4443C27.3814 37.2457 26.2851 37.3036 25.5405 37.5707L21.1667 39.1143V36.6557L21.4188 36.5707C21.4188 36.5707 22.6834 36.1228 24.4608 35.9264C26.2381 35.7293 28.4149 35.9514 30.123 36.6007C32.0491 37.2121 32.2658 38.11 31.7776 38.7286C31.2872 39.3471 30.0876 39.7893 30.0876 39.7893L21.1667 43V40.6321" fill="white"/>
<path fill-rule="evenodd" clip-rule="evenodd" d="M8.06136 39.4431C5.89614 38.8688 5.53503 37.6709 6.52014 36.9816C7.43447 36.3438 8.98291 35.8623 8.98291 35.8623L15.389 33.7145V36.1623L10.7798 37.7202C9.96441 37.9973 9.84019 38.3852 10.501 38.5909C11.164 38.7959 12.3629 38.7373 13.1776 38.4602L15.389 37.7052V39.8959C15.2482 39.9202 15.0915 39.9431 14.9477 39.9659C12.7349 40.3073 10.3804 40.1659 8.06136 39.4431" fill="white"/>
<g opacity="0.5">
<path fill-rule="evenodd" clip-rule="evenodd" d="M17.8536 10.8061C18.6822 10.8061 19.3539 10.1552 19.3539 9.35216C19.3539 8.54916 18.6822 7.89819 17.8536 7.89819C17.025 7.89819 16.3533 8.54916 16.3533 9.35216C16.3533 10.1552 17.025 10.8061 17.8536 10.8061Z" fill="white"/>
<path d="M14.3044 11.161C15.7444 11.2395 16.1044 12.8788 14.4844 14.3727C12.3044 16.425 10.6744 18.9882 9.54444 21.6832C9.54444 21.6832 9.19444 22.3163 8.61444 22.4917C7.47444 22.8398 6.31444 21.689 6.92444 20.1884C8.33444 16.7982 10.4644 13.6263 13.3744 11.4431C13.6444 11.257 13.8044 11.1571 14.3044 11.161Z" fill="white"/>
</g>
<path d="M39.616 19.388L39.256 24.392C39.832 24.272 40.384 24.176 40.912 24.104C41.464 24.032 42.016 23.996 42.568 23.996C43.696 23.996 44.74 24.14 45.7 24.428C46.66 24.716 47.488 25.16 48.184 25.76C48.88 26.336 49.42 27.068 49.804 27.956C50.212 28.844 50.416 29.888 50.416 31.088C50.416 32.288 50.188 33.356 49.732 34.292C49.3 35.204 48.7 35.972 47.932 36.596C47.188 37.22 46.312 37.688 45.304 38C44.296 38.336 43.228 38.504 42.1 38.504C40.156 38.504 38.584 38.06 37.384 37.172C36.184 36.26 35.488 35.036 35.296 33.5C35.584 32.468 36.22 31.952 37.204 31.952C37.756 31.952 38.2 32.132 38.536 32.492C38.872 32.828 39.148 33.512 39.364 34.544L39.616 35.84C39.736 36.344 40.024 36.644 40.48 36.74C40.912 36.812 41.332 36.848 41.74 36.848C43.252 36.848 44.404 36.344 45.196 35.336C46.012 34.304 46.42 32.96 46.42 31.304C46.42 29.696 46 28.46 45.16 27.596C44.344 26.732 43.132 26.3 41.524 26.3C40.588 26.3 39.688 26.384 38.824 26.552C38.728 26.576 38.596 26.588 38.428 26.588C38.164 26.588 37.936 26.54 37.744 26.444C37.408 26.3 37.252 25.976 37.276 25.472L37.888 16.724C37.936 16.148 38.248 15.86 38.824 15.86H48.832C49.432 15.86 49.732 16.16 49.732 16.76V18.488C49.732 19.088 49.432 19.388 48.832 19.388H39.616Z" fill="white"/>
</svg>
