<svg width="921" height="129" viewBox="0 0 921 129" fill="none" xmlns="http://www.w3.org/2000/svg">
<g filter="url(#filter0_d)">
<path d="M88.6364 38H103.182C98.8636 15.5 80 0.0454502 55.4545 0.0454502C25.625 0.0454502 4.54545 23 4.54545 59.8182C4.54545 96.6364 25.4545 119.591 56.3636 119.591C84.0909 119.591 103.864 101.125 103.864 72.3182V59.8182H59.5455V72.3182H90.2273C89.8295 93.2273 76.0795 106.409 56.3636 106.409C34.7727 106.409 18.1818 90.0455 18.1818 59.8182C18.1818 29.5909 34.7727 13.2273 55.4545 13.2273C72.2727 13.2273 83.6932 22.7159 88.6364 38ZM135.576 118L147.281 85.0455H194.326L206.031 118H220.803L178.076 1.63636H163.531L120.803 118H135.576ZM151.713 72.5455L170.349 20.0455H171.258L189.894 72.5455H151.713ZM245.328 1.63636V118H258.51V29.5909H259.647L296.01 118H308.738L345.101 29.5909H346.238V118H359.419V1.63636H342.601L303.056 98.2273H301.692L262.147 1.63636H245.328ZM394.072 118H465.209V105.5H408.163V65.9545H460.663V53.4545H408.163V14.1364H464.299V1.63636H394.072V118ZM559.734 30.7273H573.37C572.745 13.1705 556.552 0.0454502 534.052 0.0454502C511.779 0.0454502 494.279 13 494.279 32.5455C494.279 48.2273 505.643 57.5455 523.824 62.7727L538.143 66.8636C550.415 70.2727 561.324 74.5909 561.324 86.1818C561.324 98.9091 549.052 107.318 532.915 107.318C519.052 107.318 506.779 101.182 505.643 88H491.097C492.461 107.091 507.915 120.045 532.915 120.045C559.734 120.045 574.961 105.273 574.961 86.4091C574.961 64.5909 554.279 57.5455 542.234 54.3636L530.415 51.1818C521.779 48.9091 507.915 44.3636 507.915 31.8636C507.915 20.7273 518.143 12.5455 533.597 12.5455C547.688 12.5455 558.37 19.25 559.734 30.7273ZM604.528 118H618.619V75.5H644.074C671.176 75.5 683.392 59.0227 683.392 38.4545C683.392 17.8864 671.176 1.63636 643.847 1.63636H604.528V118ZM618.619 63V14.1364H643.392C662.312 14.1364 669.528 24.4773 669.528 38.4545C669.528 52.4318 662.312 63 643.619 63H618.619ZM810.673 59.8182C810.673 23 789.082 0.0454502 759.309 0.0454502C729.536 0.0454502 707.945 23 707.945 59.8182C707.945 96.6364 729.536 119.591 759.309 119.591C789.082 119.591 810.673 96.6364 810.673 59.8182ZM797.036 59.8182C797.036 90.0455 780.445 106.409 759.309 106.409C738.173 106.409 721.582 90.0455 721.582 59.8182C721.582 29.5909 738.173 13.2273 759.309 13.2273C780.445 13.2273 797.036 29.5909 797.036 59.8182ZM829.559 14.1364H866.149V118H880.24V14.1364H916.831V1.63636H829.559V14.1364Z" fill="white"/>
</g>
<defs>
<filter id="filter0_d" x="0.545471" y="0.0454559" width="920.286" height="128" filterUnits="userSpaceOnUse" color-interpolation-filters="sRGB">
<feFlood flood-opacity="0" result="BackgroundImageFix"/>
<feColorMatrix in="SourceAlpha" type="matrix" values="0 0 0 0 0 0 0 0 0 0 0 0 0 0 0 0 0 0 127 0"/>
<feOffset dy="4"/>
<feGaussianBlur stdDeviation="2"/>
<feColorMatrix type="matrix" values="0 0 0 0 0 0 0 0 0 0 0 0 0 0 0 0 0 0 0.25 0"/>
<feBlend mode="normal" in2="BackgroundImageFix" result="effect1_dropShadow"/>
<feBlend mode="normal" in="SourceGraphic" in2="effect1_dropShadow" result="shape"/>
</filter>
</defs>
</svg>
